<svg xmlns="http://www.w3.org/2000/svg" width="2400" height="1050" viewBox="0 0 2400 1050">
  <defs>
    <radialGradient id="blueGlow" cx="50%" cy="42%" r="45%">
      <stop offset="0" stop-color="#1e63ff" stop-opacity="0.20"/>
      <stop offset="0.42" stop-color="#4b8cff" stop-opacity="0.10"/>
      <stop offset="1" stop-color="#ffffff" stop-opacity="0"/>
    </radialGradient>
    <radialGradient id="orangeGlow" cx="22%" cy="50%" r="32%">
      <stop offset="0" stop-color="#ff8a00" stop-opacity="0.14"/>
      <stop offset="1" stop-color="#ffffff" stop-opacity="0"/>
    </radialGradient>
    <linearGradient id="traceBlue" x1="0" x2="1">
      <stop offset="0" stop-color="#0b2f8a" stop-opacity="0.03"/>
      <stop offset="0.48" stop-color="#1e63ff" stop-opacity="0.42"/>
      <stop offset="1" stop-color="#0b2f8a" stop-opacity="0.03"/>
    </linearGradient>
    <linearGradient id="traceOrange" x1="0" x2="1">
      <stop offset="0" stop-color="#ff8a00" stop-opacity="0.03"/>
      <stop offset="0.5" stop-color="#ff8a00" stop-opacity="0.46"/>
      <stop offset="1" stop-color="#ff8a00" stop-opacity="0.03"/>
    </linearGradient>
    <filter id="softBlur" x="-20%" y="-20%" width="140%" height="140%">
      <feGaussianBlur stdDeviation="1.2"/>
    </filter>
  </defs>
  <rect width="2400" height="1050" fill="#ffffff"/>
  <rect width="2400" height="1050" fill="url(#blueGlow)"/>
  <rect width="2400" height="1050" fill="url(#orangeGlow)"/>
  <g opacity="0.55">
    <path d="M0 512h420l112-72h290l88-70h180" stroke="url(#traceBlue)" stroke-width="6" stroke-linecap="round" fill="none"/>
    <path d="M2400 500h-430l-128 82h-340l-120-92h-130" stroke="url(#traceBlue)" stroke-width="6" stroke-linecap="round" fill="none"/>
    <path d="M0 648h570l110 88h310l84 70h140" stroke="#1e63ff" stroke-opacity="0.16" stroke-width="3" stroke-linecap="round" fill="none"/>
    <path d="M2400 658h-545l-120 94h-330l-88 64h-118" stroke="#0b2f8a" stroke-opacity="0.14" stroke-width="3" stroke-linecap="round" fill="none"/>
    <path d="M315 274h480l100 74h250" stroke="#1e63ff" stroke-opacity="0.14" stroke-width="3" stroke-linecap="round" fill="none"/>
    <path d="M2090 266h-420l-122 82h-232" stroke="#ff8a00" stroke-opacity="0.18" stroke-width="3" stroke-linecap="round" fill="none"/>
    <path d="M500 835h370l96-90h150" stroke="url(#traceOrange)" stroke-width="5" stroke-linecap="round" fill="none"/>
    <path d="M1890 840h-385l-95-94h-160" stroke="url(#traceOrange)" stroke-width="5" stroke-linecap="round" fill="none"/>
  </g>
  <g transform="translate(1200 405)" opacity="0.72">
    <path d="M0-155 250-38 250 76 0 198-250 76-250-38Z" fill="#ffffff" fill-opacity="0.66" stroke="#1e63ff" stroke-opacity="0.22" stroke-width="5"/>
    <path d="M0-108 178-26 178 50 0 136-178 50-178-26Z" fill="#eaf2ff" fill-opacity="0.68" stroke="#ff8a00" stroke-opacity="0.20" stroke-width="3"/>
    <path d="M-155-24h-380M155-24h380M-175 52h-520M175 52h520M-95 112l-160 110M95 112l160 110" fill="none" stroke="#1e63ff" stroke-width="5" stroke-linecap="round" opacity="0.22"/>
  </g>
  <g fill="#1e63ff" opacity="0.22" filter="url(#softBlur)">
    <circle cx="342" cy="512" r="10"/><circle cx="604" cy="736" r="8"/><circle cx="1695" cy="582" r="9"/><circle cx="2048" cy="646" r="8"/><circle cx="1240" cy="215" r="7"/>
  </g>
  <g fill="#ff8a00" opacity="0.22" filter="url(#softBlur)">
    <circle cx="724" cy="348" r="7"/><circle cx="1462" cy="760" r="8"/><circle cx="1894" cy="270" r="7"/>
  </g>
</svg>
